# xmcd
#
# Track frame offsets:
#	150
#	13594
#	27335
#	52179
#	61854
#	70399
#	84704
#	98523
#	125401
#	142830
#
# Disc length: 2160 seconds
#
# Revision: 1
# Processed by: cddbd v1.5.2PL0 Copyright (c) Steve Scherf et al.
# Submitted via: audiograbber 1.81.03
#
DISCID=82086e0a
DTITLE=Lefty`McRighty]p[Boxcar Cadavers - Lefty McRighty And The Boxcar Cadaver
DTITLE=s
DYEAR=2006
DGENRE=Blues
TTITLE0=Big Nipples
TTITLE1=Bible Wood
TTITLE2=Walk Away
TTITLE3=Help Me See The Light
TTITLE4=Train 69
TTITLE5=Rolling
TTITLE6=Hepatitis Blues
TTITLE7=I Love You In Pieces
TTITLE8=Spare An Extra Liver
TTITLE9=Heaven
EXTD=
EXTT0=
EXTT1=
EXTT2=
EXTT3=
EXTT4=
EXTT5=
EXTT6=
EXTT7=
EXTT8=
EXTT9=
PLAYORDER=
